<svg width="20" height="20" viewBox="0 0 20 20" fill="none" xmlns="http://www.w3.org/2000/svg">
<g clip-path="url(#clip0_3111_98)">
<path d="M17.0711 2.92892C15.1823 1.04019 12.6711 0 10 0C7.32895 0 4.81766 1.04019 2.92892 2.92892C1.04019 4.81766 0 7.32895 0 10C0 12.6711 1.04019 15.1823 2.92892 17.0711C4.81766 18.9598 7.32895 20 10 20C12.6711 20 15.1823 18.9598 17.0711 17.0711C18.9598 15.1823 20 12.6711 20 10C20 7.32895 18.9598 4.81766 17.0711 2.92892ZM10 17.8906C5.64911 17.8906 2.10938 14.3509 2.10938 10C2.10938 5.64911 5.64911 2.10938 10 2.10938C14.3509 2.10938 17.8906 5.64911 17.8906 10C17.8906 14.3509 14.3509 17.8906 10 17.8906Z" fill="white"/>
<path d="M10.0291 3.31396C6.3264 3.31396 3.31396 6.3264 3.31396 10.0291C3.31396 13.7318 6.3264 16.7442 10.0291 16.7442C13.7318 16.7442 16.7442 13.7318 16.7442 10.0291C16.7442 6.3264 13.7318 3.31396 10.0291 3.31396ZM12.5485 12.4251C12.4062 12.6927 12.2145 12.9094 11.9732 13.0746C11.7318 13.2399 11.4542 13.3607 11.1402 13.4365C10.9684 13.4781 10.7919 13.5079 10.611 13.5268V14.8917H9.4398V13.501C9.15355 13.4617 8.86913 13.3995 8.58684 13.3125C8.07106 13.1539 7.60821 12.9293 7.19843 12.6383L7.80342 11.4582C7.8629 11.5177 7.97026 11.5955 8.12566 11.6912C8.28091 11.7872 8.46438 11.8831 8.67605 11.9789C8.88758 12.0748 9.12228 12.1558 9.38017 12.2218C9.63791 12.288 9.9022 12.3209 10.1734 12.3209C10.927 12.3209 11.3039 12.0797 11.3039 11.597C11.3039 11.4449 11.2607 11.3161 11.175 11.2102C11.089 11.1045 10.9667 11.012 10.8081 10.9327C10.6495 10.8532 10.4576 10.7806 10.233 10.7144C10.008 10.6484 9.75686 10.5757 9.4793 10.4964C9.14211 10.4038 8.84961 10.303 8.60163 10.1938C8.35381 10.0847 8.14701 9.95588 7.98185 9.80703C7.81653 9.65834 7.69255 9.48647 7.61004 9.29141C7.52738 9.09651 7.48605 8.86348 7.48605 8.59233C7.48605 8.23531 7.55209 7.91795 7.68446 7.64039C7.81653 7.36268 8 7.13133 8.2347 6.94619C8.46941 6.7612 8.74209 6.62059 9.05289 6.52466C9.1781 6.48623 9.30712 6.45573 9.4398 6.4327V5.15638H10.611V6.41592C10.8965 6.45283 11.1672 6.51871 11.4228 6.61388C11.8393 6.76943 12.2029 6.95274 12.5137 7.16427L11.9089 8.27496C11.8625 8.22876 11.7782 8.16592 11.6559 8.08647C11.5335 8.00716 11.3847 7.92954 11.2096 7.85344C11.0344 7.77749 10.8444 7.71313 10.6396 7.66006C10.4344 7.6073 10.2263 7.58076 10.0147 7.58076C9.63791 7.58076 9.35684 7.65015 9.17185 7.78908C8.98671 7.92786 8.89414 8.12292 8.89414 8.37409C8.89414 8.51958 8.92891 8.64037 8.9983 8.73614C9.06769 8.83207 9.16834 8.91625 9.30072 8.98899C9.43294 9.06174 9.59978 9.12778 9.80154 9.18725C10.0032 9.24673 10.2362 9.30971 10.5006 9.37575C10.8444 9.46832 11.1567 9.56745 11.4378 9.67313C11.7187 9.77897 11.9566 9.91119 12.1517 10.0698C12.3466 10.2286 12.4971 10.4186 12.6029 10.64C12.7086 10.8616 12.7615 11.1343 12.7615 11.4581C12.7617 11.835 12.6905 12.1573 12.5485 12.4251Z" fill="white"/>
</g>
<defs>
<clipPath id="clip0_3111_98">
<rect width="20" height="20" fill="white"/>
</clipPath>
</defs>
</svg>
