<svg width="32" height="24" viewBox="0 0 32 24" fill="none" xmlns="http://www.w3.org/2000/svg">
<path d="M16.0615 24C16.7205 23.9704 17.4247 23.9409 18.1297 23.9076C18.3352 23.8982 18.4673 23.7897 18.5724 23.5798C18.6779 23.3702 18.6981 23.1513 18.7176 22.9238C18.7341 22.8291 18.7558 22.7352 18.7827 22.6428C18.8115 22.4976 18.84 22.3509 18.8602 22.2042C18.8804 22.0575 18.8658 21.9183 18.9549 21.7997C18.959 21.7929 18.9616 21.7858 18.9627 21.778L19.158 20.7912C19.1913 20.6232 19.228 20.4563 19.2557 20.2879C19.2838 20.1195 19.2969 19.9518 19.3264 19.7864C19.3451 19.6847 19.3852 19.5877 19.4095 19.4867C19.4335 19.3857 19.4529 19.2637 19.4784 19.1537C19.4963 19.0758 19.5195 19.0044 19.5435 18.9314C19.5581 18.8835 19.5824 18.8375 19.5955 18.7888C19.646 18.589 19.6995 18.3895 19.7422 18.1878C19.8118 17.8514 19.8724 17.5124 19.9413 17.1782C19.9588 17.1195 19.9809 17.0622 20.0071 17.0069C20.085 16.7958 20.1624 16.5844 20.2455 16.3733C20.2702 16.3056 20.2971 16.2382 20.3229 16.172C20.3338 16.1473 20.36 16.1278 20.3634 16.1031C20.3907 15.9471 20.4423 15.7997 20.5183 15.6605C20.5632 15.5714 20.5639 15.458 20.644 15.3817C20.6695 15.357 20.6702 15.3042 20.6852 15.2623C20.717 15.1759 20.7503 15.0905 20.7843 15.006C20.7914 14.988 20.806 14.9734 20.8132 14.9555C20.8809 14.7728 20.9479 14.5902 21.0137 14.408C21.0231 14.3826 21.0238 14.3444 21.0403 14.3305C21.1387 14.2598 21.1286 14.1262 21.1814 14.0394C21.2588 13.9159 21.2955 13.7745 21.3659 13.6566C21.4613 13.5013 21.5908 13.3692 21.6465 13.1769C21.6731 13.0844 21.7576 13.0122 21.8149 12.9299C21.8523 12.8764 21.8924 12.8229 21.9227 12.7652C21.9941 12.6418 22.0615 12.516 22.1322 12.3933C22.1491 12.3637 22.1887 12.3413 22.1917 12.3158C22.2082 12.1549 22.347 12.0827 22.4084 11.9562C22.4563 11.8578 22.5581 11.7923 22.6292 11.7062C22.689 11.6348 22.7377 11.5509 22.7953 11.4787C22.9046 11.3358 23.0146 11.1932 23.1287 11.054C23.2257 10.9369 23.3319 10.8291 23.4288 10.7116C23.5003 10.6255 23.5591 10.5252 23.6328 10.4422C23.7065 10.3591 23.7877 10.3011 23.8599 10.2281C23.9322 10.1552 24.0044 10.0728 24.0788 10.0021C24.2454 9.8397 24.4145 9.68067 24.5814 9.51826C24.6697 9.43145 24.7543 9.33977 24.8433 9.2522C24.9208 9.17437 25.0031 9.10701 25.0761 9.02843C25.1491 8.94984 25.231 8.85143 25.3085 8.76686C25.3654 8.70511 25.4264 8.64786 25.4918 8.5951C25.5955 8.51764 25.704 8.4398 25.8103 8.36234L26.1897 8.08206C26.3001 8.01134 26.4034 7.93126 26.4999 7.8422C26.6077 7.72732 26.7806 7.72245 26.8603 7.56266C26.876 7.53161 26.9475 7.53909 26.9752 7.50915C27.0785 7.39652 27.2457 7.38567 27.3243 7.23561C27.3329 7.21877 27.3621 7.21615 27.3801 7.2038C27.5159 7.10763 27.6506 7.00959 27.7872 6.91492C27.8198 6.89246 27.8594 6.88086 27.892 6.85916C27.95 6.81949 28.0058 6.77459 28.0634 6.73343C28.0866 6.71696 28.1128 6.70611 28.1408 6.69077C28.1988 6.6541 28.2565 6.61705 28.3145 6.57888C28.347 6.55792 28.3803 6.53547 28.4136 6.51526C28.4264 6.50815 28.4432 6.50965 28.4548 6.50105C28.576 6.41198 28.6947 6.31731 28.8178 6.23274C28.9413 6.1478 29.0576 6.08568 29.1763 6.01046C29.2212 5.9824 29.2616 5.94685 29.3035 5.91504C29.3263 5.89259 29.3521 5.87388 29.381 5.85928C29.47 5.83047 29.5662 5.81737 29.6137 5.70399C29.6171 5.69688 29.6227 5.69201 29.6298 5.68902C29.7959 5.62466 29.9632 5.56254 30.1286 5.49481C30.2061 5.46375 30.2749 5.42184 30.3479 5.38479C30.3602 5.37768 30.3711 5.35747 30.382 5.35822C30.5496 5.36309 30.666 5.23474 30.8063 5.16813C30.8894 5.12771 30.9567 5.06896 31.0076 4.9915C31.0589 4.91442 31.087 4.82984 31.0918 4.73704C31.0956 4.58811 31.1225 4.42683 31.0817 4.28987C30.9186 3.75363 31.0211 3.20318 30.9829 2.65946C30.9706 2.48957 30.9706 2.32043 30.8621 2.17972C30.846 2.14829 30.8377 2.11499 30.8374 2.07944C30.8179 1.93125 30.8134 1.78082 30.7079 1.66257C30.6847 1.63563 30.6907 1.5795 30.6768 1.53983C30.6458 1.45302 30.6095 1.3692 30.5777 1.28313C30.5567 1.2255 30.541 1.16488 30.52 1.10763C30.4845 1.01183 30.4426 0.916408 30.4085 0.821734C30.4085 0.814624 30.3962 0.808637 30.3962 0.802275C30.3962 0.593469 30.2648 0.44229 30.2076 0.25893C30.1679 0.1317 30.1028 0.040768 29.9812 0.020561C29.8177 -0.00675599 29.653 -0.0299567 29.5157 0.111493C29.4895 0.137687 29.4382 0.134694 29.4064 0.153404C29.3353 0.191947 29.2676 0.237974 29.1965 0.276891C29.1594 0.297098 29.1201 0.311318 29.0786 0.318802C28.9955 0.330403 28.9162 0.33639 28.8735 0.439671C28.8619 0.466239 28.8084 0.479336 28.7729 0.483078C28.6853 0.494305 28.5992 0.500292 28.5536 0.602076C28.5487 0.612928 28.5409 0.620412 28.53 0.625276C28.3672 0.695253 28.203 0.761113 28.0409 0.834083C27.9717 0.86589 27.9047 0.90144 27.84 0.940731C27.8276 0.948216 27.8183 0.972539 27.8089 0.97179C27.6222 0.957571 27.4987 1.12709 27.3296 1.16787C27.2446 1.19706 27.1634 1.23373 27.0852 1.27826C27.0792 1.27826 27.0744 1.29061 27.0684 1.29323C26.8674 1.36209 26.6657 1.43057 26.4648 1.50129C26.3578 1.53834 26.2533 1.57875 26.1463 1.62141C26.1007 1.64012 26.0535 1.65434 26.0052 1.66407C25.8672 1.68353 25.7306 1.68914 25.6105 1.79317C25.5584 1.83882 25.4675 1.83433 25.3938 1.84668C25.2677 1.86839 25.1412 1.87362 25.0301 1.97017C24.9837 2.01133 24.8991 1.99562 24.834 2.01582C24.7154 2.05249 24.6012 2.10039 24.4796 2.13557C24.3973 2.15952 24.3105 2.16513 24.2278 2.18758C24.0972 2.22238 23.9692 2.26504 23.8397 2.30321C23.7679 2.32492 23.6945 2.33988 23.6197 2.34812C23.4449 2.35485 23.2784 2.39527 23.1201 2.47011C23.0251 2.50528 22.9267 2.52175 22.8256 2.51913C22.6292 2.52175 22.4409 2.56179 22.261 2.64C22.1547 2.67779 22.0454 2.69313 21.9328 2.68602C21.7101 2.68079 21.4968 2.72344 21.2929 2.814C21.239 2.83496 21.1829 2.84506 21.1249 2.84431C20.9318 2.85891 20.7372 2.86452 20.5456 2.88473C20.4543 2.90194 20.3645 2.92439 20.2754 2.95134C20.1676 2.9779 20.058 2.99699 19.9476 3.00896C19.6187 3.03142 19.289 3.04302 18.9605 3.06247C18.8643 3.06884 18.7689 3.08717 18.6727 3.10064C18.4355 3.13245 18.1978 3.1912 17.9606 3.1912C16.7392 3.1912 15.5178 3.18372 14.2964 3.17586C14.235 3.1781 14.1748 3.17062 14.1156 3.15341C13.7373 3.01682 13.3448 3.03216 12.9522 3.01832C12.7891 3.02094 12.6312 2.99175 12.4792 2.93113C12.3666 2.89221 12.2506 2.87313 12.1312 2.87388C11.9527 2.86078 11.772 2.86751 11.5946 2.8488C11.4169 2.83047 11.2361 2.78669 11.0569 2.75899C10.9151 2.73654 10.7732 2.71297 10.6314 2.70137C10.4529 2.68677 10.2722 2.69051 10.0948 2.67255C9.98216 2.66095 9.87289 2.61979 9.761 2.59509C9.60608 2.56553 9.44256 2.54607 9.28502 2.51763C9.17425 2.49481 9.06461 2.45851 8.95534 2.4282C8.9385 2.42258 8.92204 2.41323 8.9052 2.40874C8.58151 2.33128 8.25745 2.24895 7.93488 2.16588C7.88437 2.15316 7.83871 2.1206 7.78819 2.10376C7.68678 2.06859 7.5835 2.03902 7.47798 2.00497C7.41773 1.98476 7.35936 1.95932 7.30061 1.93425C7.27703 1.92489 7.25645 1.9073 7.23213 1.90019C6.98553 1.82273 6.73668 1.75425 6.49232 1.66744C6.27603 1.5896 6.06423 1.49792 5.85094 1.41111C5.83073 1.40325 5.81389 1.38716 5.79368 1.3793C5.59984 1.30147 5.40601 1.23411 5.21217 1.15103C5.01796 1.06796 4.85667 0.980771 4.68005 0.894704C4.67069 0.888717 4.66134 0.883478 4.65123 0.878613L4.0308 0.645483C3.9975 0.632012 3.96532 0.615921 3.93463 0.597211C3.91293 0.584114 3.89609 0.560165 3.87364 0.550061C3.67867 0.466239 3.48559 0.384663 3.28801 0.303086C3.2678 0.294479 3.23899 0.297098 3.22813 0.281382C3.09192 0.100641 2.89621 0.126087 2.72034 0.119725C2.54408 0.113738 2.348 0.144797 2.16202 0.139184C1.97567 0.133945 1.87201 0.26342 1.76798 0.382417C1.67555 0.488691 1.55244 0.593469 1.56554 0.775333C1.56554 0.794417 1.53747 0.817244 1.52213 0.838199C1.49818 0.861026 1.47835 0.886846 1.46226 0.91566C1.39789 1.09752 1.34438 1.28388 1.27403 1.45938C1.21341 1.6143 1.1352 1.75725 1.06448 1.90581C1.03978 1.95782 1.01508 2.00984 0.987017 2.0611L0.754263 2.53297C0.746029 2.55019 0.728067 2.56179 0.720957 2.57975C0.653601 2.74665 0.579134 2.91204 0.522629 3.08343C0.486706 3.19307 0.488203 3.31656 0.388288 3.39402C0.385296 3.39664 0.383425 3.40001 0.383051 3.40412C0.32168 3.63164 0.250956 3.85616 0.203806 4.08667C0.192955 4.12858 0.188089 4.17087 0.189587 4.21428C0.190708 4.25731 0.197819 4.2996 0.210917 4.34076C0.224012 4.38192 0.242723 4.42046 0.266672 4.45639C0.290623 4.49269 0.319061 4.52449 0.351992 4.55256C0.40251 4.59522 0.460886 4.62104 0.526371 4.63002C0.672312 4.64648 0.820122 4.64162 0.941364 4.75575C0.946604 4.76062 0.952965 4.76436 0.960075 4.7666C1.19807 4.84444 1.43681 4.91442 1.67406 4.99038C1.75152 5.01508 1.82935 5.05025 1.9012 5.08131C1.9113 5.08131 1.91991 5.09366 1.93001 5.0974C2.1261 5.17524 2.3248 5.2527 2.51789 5.33727C2.67992 5.4151 2.83522 5.50341 2.99238 5.58798C3.00249 5.5936 3.01035 5.60295 3.0197 5.60669C3.18248 5.68453 3.34937 5.75189 3.50804 5.83982C3.64238 5.91205 3.76886 6.00448 3.89609 6.0883C3.90544 6.09354 3.91143 6.10514 3.92079 6.11075C4.06036 6.18821 4.20144 6.26604 4.34102 6.3435C4.4806 6.42134 4.59997 6.49094 4.72869 6.56878C4.88399 6.66495 5.03891 6.76449 5.19421 6.8644C5.27167 6.91342 5.34089 6.96843 5.41349 7.01969C5.53249 7.10464 5.65074 7.18996 5.76824 7.27528C5.7847 7.28987 5.80304 7.30259 5.8225 7.31344C5.97891 7.3924 6.117 7.49606 6.23712 7.62403C6.24572 7.63114 6.2547 7.63788 6.26443 7.64424C6.47623 7.77858 6.69102 7.90806 6.89946 8.05025C6.98253 8.11686 7.05999 8.18946 7.13221 8.26767C7.14643 8.28451 7.16215 8.30022 7.17936 8.31407C7.29649 8.3919 7.41698 8.46076 7.53074 8.54308C7.69577 8.64973 7.85069 8.7691 7.99625 8.9012C8.12199 9.03404 8.26344 9.1478 8.42023 9.2421C8.50891 9.29149 8.57141 9.39739 8.64662 9.47485C8.70612 9.54333 8.76936 9.60807 8.83597 9.66907C9.00212 9.8079 9.175 9.937 9.34152 10.0743C9.39615 10.1237 9.4463 10.1772 9.4927 10.2341C9.57053 10.3187 9.64163 10.4044 9.7161 10.4882C9.79057 10.572 9.85343 10.6435 9.92266 10.7165C9.95821 10.7569 9.99376 10.7988 10.0304 10.8373C10.1079 10.9204 10.1891 10.9997 10.2628 11.0851C10.3249 11.155 10.3822 11.2288 10.4349 11.3055C10.5128 11.4188 10.5756 11.5423 10.6561 11.6512C10.7369 11.7597 10.8237 11.832 10.8975 11.9308C10.9708 12.0292 11.0262 12.1355 11.0921 12.2365C11.1695 12.357 11.2548 12.4749 11.3372 12.5931C11.3473 12.6077 11.3671 12.6163 11.375 12.6324C11.4386 12.7615 11.4775 12.9213 11.5703 13.0145C11.6822 13.1263 11.7084 13.2816 11.7993 13.4029C11.8801 13.523 11.9479 13.6502 12.0025 13.7846C12.0684 13.926 12.0987 14.1038 12.1948 14.2093C12.3228 14.3485 12.2787 14.5712 12.4272 14.6853C12.4467 14.6995 12.4493 14.7422 12.456 14.7732C12.4609 14.8121 12.4688 14.8503 12.4792 14.8881C12.5638 15.076 12.6514 15.2616 12.7386 15.4479C12.743 15.4588 12.7531 15.4663 12.7561 15.4771C12.8138 15.6863 12.8688 15.8958 12.9283 16.1039C12.9608 16.2188 13.002 16.3307 13.0368 16.4448C13.054 16.4919 13.0664 16.5406 13.0735 16.5907C13.0922 16.7505 13.0982 16.9107 13.1921 17.0503C13.2194 17.1161 13.2325 17.1846 13.2318 17.2561C13.2493 17.4076 13.2594 17.5581 13.3478 17.6924C13.3852 17.7482 13.3713 17.8477 13.3859 17.9207C13.42 18.0883 13.4634 18.2545 13.493 18.4228C13.5135 18.5258 13.5289 18.6294 13.5386 18.7334C13.5427 18.9276 13.5805 19.1148 13.652 19.2947C13.6767 19.3778 13.6913 19.4624 13.6961 19.5488C13.7332 19.752 13.7736 19.9556 13.8095 20.1592C13.8256 20.2482 13.8372 20.338 13.8436 20.4286C13.8518 20.8032 13.8911 21.1744 13.9615 21.5426C14.0049 21.7346 13.9877 21.9426 13.9955 22.1436C14.0094 22.4983 14.0109 22.8538 14.0374 23.2082C14.0434 23.3171 14.0689 23.4219 14.113 23.5218C14.1572 23.6217 14.2174 23.7107 14.2941 23.7886C14.3473 23.8316 14.4064 23.8642 14.4708 23.8866C14.4984 23.8956 14.5265 23.8993 14.5553 23.8982L16.0615 24Z" fill="#E50914"/>
</svg>
