<svg width="45" height="45" viewBox="0 0 45 45" fill="none" xmlns="http://www.w3.org/2000/svg">
<path fill-rule="evenodd" clip-rule="evenodd" d="M31.4887 17.1166C31.2395 19.8837 30.1602 26.5986 29.6114 29.6978C29.3788 31.0094 28.9213 31.4491 28.4786 31.4922C27.5167 31.5858 26.7858 30.82 25.8535 30.1749C24.395 29.1652 23.571 28.5372 22.1553 27.552C20.5187 26.4131 21.5798 25.7876 22.512 24.7651C22.7561 24.497 26.9961 20.4244 27.0783 20.0552C27.0885 20.009 27.0983 19.8367 27.0012 19.7459C26.9041 19.6548 26.7612 19.6861 26.6583 19.711C26.512 19.7459 24.1816 21.3719 19.6685 24.5895C19.0067 25.0691 18.4078 25.3024 17.8708 25.291C17.2791 25.277 16.1409 24.9374 15.295 24.6469C14.2572 24.2909 13.4325 24.1022 13.5044 23.4969C13.5415 23.1819 13.9524 22.86 14.737 22.5307C19.568 20.3077 22.7891 18.8427 24.4011 18.1345C29.0035 16.1133 29.9597 15.762 30.5827 15.7502C31.3636 15.7356 31.552 16.4164 31.4887 17.1166Z" fill="white"/>
</svg>
