<svg width="45" height="45" viewBox="0 0 45 45" fill="none" xmlns="http://www.w3.org/2000/svg">
<path fill-rule="evenodd" clip-rule="evenodd" d="M31.992 18.3126C31.7639 17.4866 31.095 16.8354 30.2469 16.613C28.6976 16.2002 22.4998 16.2002 22.4998 16.2002C22.4998 16.2002 16.3023 16.2002 14.7528 16.5973C13.9211 16.8195 13.236 17.4867 13.0078 18.3126C12.6001 19.8212 12.6001 22.9503 12.6001 22.9503C12.6001 22.9503 12.6001 26.0948 13.0078 27.5878C13.2363 28.4137 13.9047 29.0649 14.753 29.2873C16.3187 29.7002 22.5001 29.7002 22.5001 29.7002C22.5001 29.7002 28.6976 29.7002 30.2469 29.3031C31.0952 29.0808 31.7639 28.4296 31.9923 27.6037C32.4 26.0948 32.4 22.966 32.4 22.966C32.4 22.966 32.4163 19.8212 31.992 18.3126ZM20.5266 25.8408V20.0595L25.6803 22.9503L20.5266 25.8408Z" fill="white"/>
</svg>
